<svg width="158" height="39" viewBox="0 0 158 39" fill="none" xmlns="http://www.w3.org/2000/svg">
<path fill-rule="evenodd" clip-rule="evenodd" d="M51.7554 20.1902L52.2904 17.4341C52.2904 17.4341 48.17 16.2234 44.8164 18.4687V29.4942H48.3776V20.5365C49.7968 19.5018 51.7554 20.1902 51.7554 20.1902Z" fill="#00425F"/>
<mask id="mask0_903:3793" style="mask-type:alpha" maskUnits="userSpaceOnUse" x="44" y="17" width="9" height="13">
<path d="M44.8164 18.4686C46.4299 17.3885 48.2211 17.1081 49.6454 17.1083C51.1813 17.1083 52.2907 17.4342 52.2907 17.4342L51.7554 20.1903C51.7554 20.1903 49.7967 19.502 48.3776 20.5364V29.4941H44.8164V18.4686Z" fill="white"/>
</mask>
<g mask="url(#mask0_903:3793)">
<path fill-rule="evenodd" clip-rule="evenodd" d="M-171.967 63.6663L329.545 63.6663L329.545 -579.109H-171.967L-171.967 63.6663Z" fill="#00425F"/>
</g>
<mask id="mask1_903:3793" style="mask-type:alpha" maskUnits="userSpaceOnUse" x="44" y="17" width="9" height="13">
<path d="M44.8164 18.4686C46.4299 17.3885 48.2209 17.1083 49.6454 17.1083C51.1813 17.1083 52.2907 17.4342 52.2907 17.4342L51.7554 20.1903C51.7554 20.1903 49.7967 19.502 48.3776 20.5364V29.4941H44.8164V18.4686Z" fill="white"/>
</mask>
<g mask="url(#mask1_903:3793)">
<path fill-rule="evenodd" clip-rule="evenodd" d="M38.8457 34.8958H58.2606V11.7068H38.8457V34.8958Z" fill="#00425F"/>
</g>
<path fill-rule="evenodd" clip-rule="evenodd" d="M21.0527 14.2908L24.6123 13.684V17.2699H28.1347V20.1375H24.6123V24.414C24.6123 25.1425 24.7425 25.7208 25.0088 26.1485C25.272 26.5827 25.7999 26.7979 26.5925 26.7979C26.9802 26.7979 27.3694 26.7643 27.7801 26.6929C28.1791 26.6204 28.5512 26.5272 28.886 26.4052L29.3897 29.0912C28.9588 29.2585 28.4826 29.4036 27.9575 29.5267C27.4308 29.6485 26.7842 29.712 26.0201 29.712C25.0488 29.712 24.2461 29.5839 23.6078 29.3298C22.9727 29.0757 22.4621 28.7191 22.0814 28.264C21.7008 27.813 21.4331 27.2595 21.2829 26.6113C21.1299 25.9644 21.0527 25.25 21.0527 24.4619V14.2908Z" fill="#00425F"/>
<mask id="mask2_903:3793" style="mask-type:alpha" maskUnits="userSpaceOnUse" x="21" y="13" width="9" height="17">
<path d="M21.0527 14.2908L24.6123 13.684V17.2699H28.1347V20.1375H24.6123V24.414C24.6123 25.1427 24.7425 25.7208 25.0086 26.1485C25.2718 26.5829 25.7996 26.7979 26.5923 26.7979C26.9799 26.7979 27.369 26.7643 27.7798 26.6929C28.1789 26.6204 28.5512 26.5272 28.886 26.4054L29.3894 29.0912C28.9588 29.2587 28.4823 29.4038 27.9573 29.5269C27.4306 29.6487 26.7839 29.712 26.0198 29.712C25.0483 29.712 24.2458 29.5839 23.6078 29.3298C22.9725 29.0757 22.4616 28.7191 22.0812 28.2642C21.7006 27.813 21.4331 27.2595 21.2829 26.6113C21.1297 25.9644 21.0527 25.2502 21.0527 24.4619V14.2908Z" fill="white"/>
</mask>
<g mask="url(#mask2_903:3793)">
<path fill-rule="evenodd" clip-rule="evenodd" d="M-171.968 63.6663L329.544 63.6663L329.544 -579.11H-171.968L-171.968 63.6663Z" fill="#00425F"/>
<path fill-rule="evenodd" clip-rule="evenodd" d="M15.082 35.1135H35.3596V8.28236H15.082L15.082 35.1135Z" fill="#00425F"/>
</g>
<path fill-rule="evenodd" clip-rule="evenodd" d="M57.5627 27.0251C58.2138 27.0251 58.6744 26.9601 58.9479 26.8383C59.2195 26.7153 59.3511 26.4742 59.3511 26.1216C59.3511 25.8428 59.1795 25.6005 58.8275 25.3943C58.4756 25.1844 57.9462 24.9511 57.2281 24.6851C56.6714 24.4842 56.165 24.277 55.7085 24.0631C55.2579 23.8453 54.8716 23.5912 54.5526 23.2891C54.2347 22.9885 53.9887 22.6279 53.8113 22.208C53.6339 21.7956 53.5497 21.2966 53.5497 20.708C53.5497 19.5684 53.9887 18.6648 54.863 18.0024C55.7385 17.3426 56.9377 17.0056 58.4684 17.0056C59.2339 17.0056 59.9664 17.0717 60.6675 17.2053C61.3672 17.3349 61.9266 17.4828 62.337 17.6317L61.7176 20.315C61.3028 20.1764 60.8521 20.0546 60.3671 19.9483C59.882 19.8396 59.3355 19.7824 58.7317 19.7824C57.6171 19.7824 57.0591 20.0857 57.0591 20.6859C57.0591 20.8246 57.0835 20.9478 57.1321 21.0553C57.1807 21.1643 57.2753 21.268 57.4155 21.3678C57.5627 21.4664 57.7546 21.5777 58.0034 21.6919C58.2508 21.8125 58.5656 21.9368 58.9479 22.0782C59.7246 22.3582 60.3699 22.6304 60.8793 22.9054C61.39 23.1801 61.7906 23.4694 62.0868 23.7906C62.3815 24.1045 62.5905 24.452 62.7077 24.8381C62.8252 25.2233 62.8865 25.6678 62.8865 26.1748C62.8865 27.3765 62.4201 28.2851 61.4916 28.8996C60.5587 29.5115 59.2395 29.8199 57.5355 29.8199C56.4224 29.8199 55.4953 29.7305 54.7556 29.5427C54.0131 29.3599 53.5009 29.2019 53.2148 29.0799L53.8113 26.2823C54.4138 26.5131 55.0405 26.6919 55.6729 26.827C56.3138 26.9591 56.9377 27.0251 57.5627 27.0251Z" fill="#00425F"/>
<mask id="mask3_903:3793" style="mask-type:alpha" maskUnits="userSpaceOnUse" x="53" y="17" width="10" height="13">
<path d="M54.863 18.0026C55.7387 17.3426 56.9377 17.0056 58.4684 17.0056C59.2342 17.0056 59.9666 17.0717 60.6677 17.2053C61.3672 17.3349 61.9267 17.4825 62.3373 17.6317L61.7178 20.315C61.3028 20.1764 60.8523 20.0546 60.3671 19.9483C59.8822 19.8394 59.3355 19.7826 58.7319 19.7826C57.6171 19.7826 57.0593 20.0855 57.0593 20.6859C57.0593 20.8246 57.0835 20.9478 57.1321 21.0553C57.1809 21.1643 57.2755 21.268 57.4158 21.3678C57.5627 21.4664 57.7548 21.5777 58.0036 21.6919C58.251 21.8123 58.5656 21.937 58.9479 22.0782C59.7248 22.3582 60.3701 22.6304 60.8793 22.9054C61.3902 23.1801 61.7908 23.4692 62.0871 23.7906C62.3817 24.1045 62.5905 24.4518 62.7079 24.8381C62.8254 25.2233 62.8865 25.6678 62.8865 26.1748C62.8865 27.3765 62.4201 28.2853 61.4918 28.8996C60.5589 29.5115 59.2397 29.8199 57.5357 29.8199C56.4226 29.8199 55.4955 29.7305 54.7558 29.5427C54.0131 29.3599 53.5011 29.2019 53.2148 29.0799L53.8115 26.2823C54.414 26.5133 55.0405 26.6919 55.6729 26.827C56.3138 26.9589 56.9377 27.0251 57.5627 27.0251C58.2138 27.0251 58.6747 26.9603 58.9479 26.8383C59.2198 26.7153 59.3514 26.4742 59.3514 26.1216C59.3514 25.8428 59.1797 25.6005 58.8277 25.3943C58.4756 25.1844 57.9462 24.9511 57.2281 24.6851C56.6714 24.4842 56.1652 24.277 55.7085 24.0631C55.2581 23.8453 54.8716 23.5912 54.5528 23.2891C54.235 22.9883 53.989 22.6279 53.8115 22.208C53.6341 21.7954 53.5497 21.2966 53.5497 20.708C53.5497 19.5686 53.989 18.6651 54.863 18.0026Z" fill="white"/>
</mask>
<g mask="url(#mask3_903:3793)">
<path fill-rule="evenodd" clip-rule="evenodd" d="M-171.967 63.6662L329.545 63.6662L329.545 -579.11H-171.967L-171.967 63.6662Z" fill="#00425F"/>
<path fill-rule="evenodd" clip-rule="evenodd" d="M47.2441 35.2214H68.8568V11.604H47.2441V35.2214Z" fill="#00425F"/>
</g>
<path fill-rule="evenodd" clip-rule="evenodd" d="M73.8571 22.5119C73.5381 23.6839 73.2019 24.8506 72.8428 26.0043C72.485 27.162 72.1043 28.3262 71.7111 29.498H68.9398C68.6522 28.8498 68.3389 28.0798 68.0041 27.1866C67.6662 26.2896 67.3216 25.3159 66.9596 24.2569C66.6017 23.2015 66.2357 22.0842 65.8606 20.9019C65.4844 19.7248 65.1195 18.5347 64.7705 17.3303H68.5219C68.6464 17.8838 68.788 18.492 68.941 19.1465C69.0928 19.8024 69.253 20.478 69.4204 21.1728C69.5879 21.8652 69.7667 22.5611 69.9497 23.2637C70.1343 23.9664 70.3234 24.6392 70.5147 25.2863C70.7224 24.6082 70.9256 23.9159 71.1244 23.2067C71.3204 22.4965 71.5137 21.7989 71.6981 21.1133C71.8799 20.4287 72.0588 19.7637 72.2217 19.1234C72.3878 18.484 72.5352 17.8838 72.6654 17.3303H75.2421C75.3737 17.8838 75.5123 18.484 75.6739 19.1234C75.8313 19.7637 75.999 20.4287 76.1764 21.1133C76.348 21.7989 76.5354 22.4965 76.7229 23.2067C76.9159 23.9159 77.1135 24.6082 77.3181 25.2863C77.5111 24.6392 77.703 23.9664 77.896 23.2637C78.0892 22.5611 78.2708 21.8652 78.4368 21.1728C78.6029 20.478 78.7631 19.8024 78.9177 19.1465C79.0707 18.492 79.2095 17.8838 79.3367 17.3303H83.0396C82.6878 18.5347 82.3257 19.7248 81.9495 20.9019C81.5702 22.0842 81.2082 23.2015 80.8463 24.2569C80.4899 25.3159 80.138 26.2896 79.796 27.1866C79.4514 28.0798 79.1335 28.8498 78.8505 29.498H76.0792C75.6783 28.3262 75.2893 27.162 74.9059 26.0043C74.5238 24.8506 74.1776 23.6839 73.8571 22.5119Z" fill="#00425F"/>
<mask id="mask4_903:3793" style="mask-type:alpha" maskUnits="userSpaceOnUse" x="64" y="17" width="20" height="13">
<path d="M79.3367 17.3305H83.0396C82.6878 18.5349 82.3257 19.7249 81.9492 20.9018C81.5702 22.0843 81.2082 23.2018 80.8461 24.257C80.4899 25.3161 80.138 26.2897 79.7958 27.1867C79.4511 28.08 79.1335 28.8497 78.8503 29.4981H76.079C75.6783 28.3263 75.2893 27.1619 74.9059 26.0042C74.5238 24.8507 74.1776 23.684 73.8571 22.512C73.5379 23.684 73.2016 24.8507 72.8428 26.0042C72.485 27.1619 72.1043 28.3263 71.7109 29.4981H68.9396C68.6519 28.8497 68.3387 28.08 68.0038 27.1867C67.6662 26.2897 67.3214 25.3161 66.9596 24.257C66.6017 23.2018 66.2355 22.0843 65.8606 20.9018C65.4844 19.7249 65.1195 18.5349 64.7705 17.3305H68.5217C68.6463 17.884 68.788 18.4919 68.941 19.1466C69.0928 19.8026 69.2528 20.4781 69.4204 21.1727C69.5876 21.8651 69.7667 22.5612 69.9497 23.2639C70.1343 23.9665 70.3234 24.6393 70.5147 25.2864C70.7221 24.6084 70.9254 23.9158 71.1242 23.2068C71.3202 22.4966 71.5137 21.799 71.6981 21.1134C71.8797 20.4286 72.0585 19.7637 72.2217 19.1235C72.3878 18.4842 72.5352 17.884 72.6652 17.3305H75.2421C75.3735 17.884 75.5123 18.4842 75.6739 19.1235C75.8313 19.7637 75.999 20.4286 76.1762 21.1134C76.348 21.799 76.5352 22.4966 76.7229 23.2068C76.9159 23.9158 77.1135 24.6084 77.3179 25.2864C77.5111 24.6393 77.7027 23.9665 77.896 23.2639C78.0892 22.5612 78.2708 21.8651 78.4368 21.1727C78.6029 20.4781 78.7631 19.8026 78.9175 19.1466C79.0707 18.4919 79.2095 17.884 79.3367 17.3305Z" fill="white"/>
</mask>
<g mask="url(#mask4_903:3793)">
<path fill-rule="evenodd" clip-rule="evenodd" d="M-171.967 63.6663L329.545 63.6663L329.545 -579.109H-171.967L-171.967 63.6663Z" fill="#00425F"/>
<path fill-rule="evenodd" clip-rule="evenodd" d="M58.8008 34.8998H89.0106V11.9291H58.8008V34.8998Z" fill="#00425F"/>
</g>
<path fill-rule="evenodd" clip-rule="evenodd" d="M85.5566 29.4933H89.1107V17.3283H85.5566V29.4933Z" fill="#00425F"/>
<mask id="mask5_903:3793" style="mask-type:alpha" maskUnits="userSpaceOnUse" x="85" y="17" width="5" height="13">
<path d="M85.5566 29.4935V17.3285H89.1109V29.4935H85.5566Z" fill="white"/>
</mask>
<g mask="url(#mask5_903:3793)">
<path fill-rule="evenodd" clip-rule="evenodd" d="M-171.967 63.6663L329.545 63.6663L329.545 -579.11H-171.967L-171.967 63.6663Z" fill="#00425F"/>
<path fill-rule="evenodd" clip-rule="evenodd" d="M79.5859 34.8949H95.0806V11.9267H79.5859V34.8949Z" fill="#00425F"/>
</g>
<path fill-rule="evenodd" clip-rule="evenodd" d="M91.9375 14.2944L95.4943 13.6839V17.3343H99.0141V20.1966H95.4943V24.4773C95.4943 25.2019 95.6259 25.7854 95.8877 26.2119C96.1496 26.6435 96.6802 26.86 97.4745 26.86C97.8594 26.86 98.2542 26.8289 98.6577 26.7576C99.0653 26.6875 99.4346 26.5878 99.7708 26.4673L100.27 29.1508C99.8394 29.3216 99.3601 29.467 98.8381 29.5913C98.3098 29.7131 97.6706 29.7754 96.9034 29.7754C95.9308 29.7754 95.1281 29.6485 94.4914 29.3917C93.8533 29.1415 93.3439 28.7877 92.9634 28.3286C92.5828 27.8776 92.3168 27.3214 92.1638 26.6772C92.0091 26.0278 91.9375 25.3096 91.9375 24.5251V14.2944Z" fill="#00425F"/>
<mask id="mask6_903:3793" style="mask-type:alpha" maskUnits="userSpaceOnUse" x="91" y="13" width="10" height="17">
<path d="M91.9375 14.2945L95.4941 13.684V17.3344H99.0139V20.1968H95.4941V24.4775C95.4941 25.202 95.6259 25.7853 95.8877 26.212C96.1496 26.6437 96.6802 26.86 97.4743 26.86C97.8591 26.86 98.2542 26.829 98.6577 26.7577C99.0653 26.6874 99.4346 26.5879 99.7706 26.4674L100.27 29.1507C99.8394 29.3217 99.3599 29.4671 98.8381 29.5914C98.3098 29.7133 97.6706 29.7755 96.9034 29.7755C95.9308 29.7755 95.1278 29.6487 94.4914 29.3918C93.8531 29.1414 93.3439 28.7878 92.9634 28.329C92.5828 27.8777 92.3168 27.3217 92.1635 26.6773C92.0091 26.0279 91.9375 25.3095 91.9375 24.5254V14.2945Z" fill="white"/>
</mask>
<g mask="url(#mask6_903:3793)">
<path fill-rule="evenodd" clip-rule="evenodd" d="M-171.967 63.666L329.545 63.666L329.545 -579.11H-171.967L-171.967 63.666Z" fill="#00425F"/>
<path fill-rule="evenodd" clip-rule="evenodd" d="M85.9668 35.177H106.24V8.28227H85.9668V35.177Z" fill="#00425F"/>
</g>
<path fill-rule="evenodd" clip-rule="evenodd" d="M101.527 23.4171C101.527 22.5367 101.675 21.7072 101.97 20.9294C102.264 20.149 102.689 19.4724 103.246 18.8928C103.804 18.3134 104.479 17.8569 105.277 17.5161C106.071 17.1804 106.979 17.0066 107.997 17.0066C108.665 17.0066 109.279 17.0676 109.837 17.1816C110.395 17.2996 110.939 17.4644 111.461 17.6781L110.723 20.4304C110.387 20.3084 110.022 20.2022 109.621 20.1063C109.223 20.0154 108.776 19.9676 108.284 19.9676C107.233 19.9676 106.448 20.2851 105.934 20.9177C105.412 21.5517 105.157 22.3827 105.157 23.4171C105.157 24.5098 105.399 25.3589 105.888 25.9606C106.369 26.5607 107.219 26.8629 108.428 26.8629C108.859 26.8629 109.318 26.8225 109.814 26.7461C110.307 26.6683 110.76 26.5465 111.178 26.3754L111.676 29.1988C111.261 29.3686 110.746 29.5112 110.125 29.6368C109.501 29.7591 108.818 29.8224 108.072 29.8224C106.926 29.8224 105.936 29.6539 105.11 29.3232C104.283 28.9927 103.601 28.5414 103.068 27.9711C102.532 27.3995 102.146 26.7255 101.898 25.9475C101.651 25.1685 101.527 24.3234 101.527 23.4171Z" fill="#00425F"/>
<mask id="mask7_903:3793" style="mask-type:alpha" maskUnits="userSpaceOnUse" x="101" y="17" width="11" height="13">
<path d="M105.277 17.5161C106.071 17.1804 106.979 17.0066 107.997 17.0066C108.665 17.0066 109.279 17.0674 109.837 17.1814C110.395 17.2996 110.939 17.4642 111.461 17.6781L110.723 20.4302C110.387 20.3084 110.022 20.2022 109.621 20.1063C109.223 20.0152 108.776 19.9674 108.283 19.9674C107.233 19.9674 106.448 20.2851 105.934 20.9177C105.412 21.5515 105.157 22.3825 105.157 23.4171C105.157 24.5098 105.399 25.3589 105.888 25.9606C106.369 26.5607 107.219 26.8629 108.428 26.8629C108.859 26.8629 109.318 26.8225 109.814 26.7461C110.307 26.6683 110.76 26.5465 111.178 26.3752L111.676 29.1988C111.261 29.3686 110.746 29.511 110.125 29.6368C109.501 29.7589 108.819 29.8224 108.072 29.8224C106.925 29.8224 105.936 29.6537 105.11 29.323C104.283 28.9925 103.601 28.5414 103.068 27.9713C102.532 27.3995 102.146 26.7255 101.898 25.9475C101.651 25.1685 101.527 24.3232 101.527 23.4171C101.527 22.5367 101.675 21.7072 101.97 20.9294C102.264 20.149 102.689 19.4722 103.246 18.8926C103.804 18.3132 104.479 17.8569 105.277 17.5161Z" fill="white"/>
</mask>
<g mask="url(#mask7_903:3793)">
<path fill-rule="evenodd" clip-rule="evenodd" d="M-171.967 63.6661L329.545 63.6661L329.545 -579.11H-171.967L-171.967 63.6661Z" fill="#00425F"/>
<path fill-rule="evenodd" clip-rule="evenodd" d="M95.5566 35.224H117.646V11.6051H95.5566V35.224Z" fill="#00425F"/>
</g>
<path fill-rule="evenodd" clip-rule="evenodd" d="M113.975 29.4938V14.29L117.533 13.6848V17.3794C117.77 17.3028 118.075 17.2289 118.453 17.1591C118.825 17.0903 119.19 17.0539 119.539 17.0539C120.556 17.0539 121.401 17.19 122.079 17.4585C122.755 17.7282 123.3 18.1106 123.704 18.6044C124.113 19.0958 124.396 19.6842 124.566 20.3597C124.731 21.0401 124.814 21.7974 124.814 22.6297V29.4938H121.257V23.0431C121.257 21.9333 121.11 21.1478 120.816 20.6824C120.522 20.2247 119.975 19.9928 119.181 19.9928C118.858 19.9928 118.563 20.0202 118.282 20.0719C118.005 20.1264 117.755 20.186 117.533 20.247V29.4938H113.975Z" fill="#00425F"/>
<mask id="mask8_903:3793" style="mask-type:alpha" maskUnits="userSpaceOnUse" x="113" y="13" width="12" height="17">
<path d="M113.975 14.2899L117.533 13.6846V17.3795C117.77 17.3027 118.075 17.2288 118.453 17.159C118.825 17.0902 119.19 17.054 119.539 17.054C120.556 17.054 121.402 17.1901 122.08 17.4583C122.755 17.7283 123.3 18.1105 123.703 18.6045C124.113 19.0957 124.396 19.6841 124.566 20.3598C124.731 21.0402 124.814 21.7973 124.814 22.6298V29.4937H121.257V23.0429C121.257 21.9334 121.109 21.1477 120.816 20.6823C120.522 20.2248 119.975 19.9927 119.181 19.9927C118.858 19.9927 118.563 20.0201 118.282 20.072C118.005 20.1263 117.755 20.1858 117.533 20.2468V29.4937H113.975V14.2899Z" fill="white"/>
</mask>
<g mask="url(#mask8_903:3793)">
<path fill-rule="evenodd" clip-rule="evenodd" d="M-171.967 63.6663L329.545 63.6663L329.545 -579.11H-171.967L-171.967 63.6663Z" fill="#00425F"/>
<path fill-rule="evenodd" clip-rule="evenodd" d="M108.004 34.8954H130.784V8.2831H108.004V34.8954Z" fill="#00425F"/>
</g>
<path fill-rule="evenodd" clip-rule="evenodd" d="M6.69922 29.4977L6.69922 18.4734C6.69922 18.4734 8.48761 17.0902 12.3993 17.0902C15.9588 17.0902 17.9135 18.8132 17.9135 22.605V29.4977H14.3581V22.605C14.3581 20.1899 13.1103 20.0226 12.0444 20.0226C10.9785 20.0226 10.2646 20.5359 10.2646 20.5359V29.4977H6.69922Z" fill="#00425F"/>
<mask id="mask9_903:3793" style="mask-type:alpha" maskUnits="userSpaceOnUse" x="6" y="17" width="12" height="13">
<path d="M6.69922 18.4734C6.69922 18.4734 8.48761 17.0902 12.3993 17.0902C15.9588 17.0902 17.9133 18.813 17.9133 22.6052V29.4977H14.3581V22.6052C14.3581 20.1897 13.1103 20.0226 12.0444 20.0226C10.9785 20.0226 10.2646 20.5361 10.2646 20.5361V29.4977H6.69922L6.69922 18.4734Z" fill="white"/>
</mask>
<g mask="url(#mask9_903:3793)">
<path fill-rule="evenodd" clip-rule="evenodd" d="M-171.967 63.6663L329.545 63.6663L329.545 -579.109H-171.967L-171.967 63.6663Z" fill="#00425F"/>
<path fill-rule="evenodd" clip-rule="evenodd" d="M0.728516 34.8994H23.8831L23.8831 11.689H0.728516L0.728516 34.8994Z" fill="#00425F"/>
</g>
<path fill-rule="evenodd" clip-rule="evenodd" d="M0 29.4977L0 14.2914L3.55962 13.6846L3.55962 29.4977H0Z" fill="#00425F"/>
<mask id="mask10_903:3793" style="mask-type:alpha" maskUnits="userSpaceOnUse" x="0" y="13" width="4" height="17">
<path d="M0 14.2916L3.55962 13.6846L3.55962 29.4977H0L0 14.2916Z" fill="white"/>
</mask>
<g mask="url(#mask10_903:3793)">
<path fill-rule="evenodd" clip-rule="evenodd" d="M-171.967 63.6663L329.545 63.6663L329.545 -579.11H-171.967L-171.967 63.6663Z" fill="#00425F"/>
<path fill-rule="evenodd" clip-rule="evenodd" d="M-5.9707 34.8994H9.52982L9.52982 8.28329H-5.9707L-5.9707 34.8994Z" fill="#00425F"/>
</g>
<path fill-rule="evenodd" clip-rule="evenodd" d="M42.0328 24.2882H34.0263C34.0263 24.2882 34.2051 26.8718 37.7605 26.8718C39.5405 26.8718 41.3204 26.357 41.3204 26.357L41.6766 29.1169C41.6766 29.1169 39.8982 29.8002 37.4087 29.8002C33.8475 29.8002 30.6455 28.0798 30.6455 23.2563C30.6455 19.4631 33.135 17.0545 36.6934 17.0545C42.0328 17.0545 42.3904 22.2164 42.0328 24.2882ZM36.5188 19.4631C34.2051 19.4631 34.0263 21.8742 34.0263 21.8742H39.0053C39.0053 21.8742 38.8309 19.4631 36.5188 19.4631Z" fill="#00425F"/>
<mask id="mask11_903:3793" style="mask-type:alpha" maskUnits="userSpaceOnUse" x="30" y="17" width="13" height="13">
<path d="M30.6455 23.2562C30.6455 19.463 33.135 17.0544 36.6932 17.0544C42.0326 17.0544 42.3902 22.2166 42.0326 24.2881H34.0263C34.0263 24.2881 34.2051 26.8717 37.7603 26.8717C39.5403 26.8717 41.3201 26.3569 41.3201 26.3569L41.6763 29.1168C41.6763 29.1168 39.8979 29.8004 37.4085 29.8004C33.8475 29.8004 30.6455 28.0799 30.6455 23.2562ZM36.5186 19.463C34.2051 19.463 34.0263 21.8743 34.0263 21.8743H39.0053C39.0053 21.8743 38.8306 19.463 36.5186 19.463Z" fill="white"/>
</mask>
<g mask="url(#mask11_903:3793)">
<path fill-rule="evenodd" clip-rule="evenodd" d="M-171.967 63.6662L329.545 63.6662L329.545 -579.11H-171.967L-171.967 63.6662Z" fill="#00425F"/>
<path fill-rule="evenodd" clip-rule="evenodd" d="M24.6748 35.2017H48.1023V11.6529H24.6748L24.6748 35.2017Z" fill="#00425F"/>
</g>
<mask id="mask12_903:3793" style="mask-type:alpha" maskUnits="userSpaceOnUse" x="129" y="11" width="24" height="28">
<path d="M129.528 13.6876C129.528 12.9525 139.762 11.3663 146.625 11.3663C149.602 11.3663 151.944 11.6646 152.543 12.4598C155.634 16.1519 133.878 39.3152 132.065 38.6125C130.611 38.2612 143.664 23.5177 141.488 17.5482C140.402 14.3915 129.528 14.7426 129.528 13.6876Z" fill="white"/>
</mask>
<g mask="url(#mask12_903:3793)">
<path fill-rule="evenodd" clip-rule="evenodd" d="M123.559 44.0297H158.814V5.96476H123.559V44.0297Z" fill="#ED342B"/>
</g>
<mask id="mask13_903:3793" style="mask-type:alpha" maskUnits="userSpaceOnUse" x="148" y="0" width="10" height="10">
<path d="M148.014 4.56166C148.014 2.04034 150.124 -8.39233e-05 152.725 -8.39233e-05C155.329 -8.39233e-05 157.437 2.04034 157.437 4.56166C157.437 7.08427 155.329 9.12469 152.725 9.12469C150.124 9.12469 148.014 7.08427 148.014 4.56166Z" fill="white"/>
</mask>
<g mask="url(#mask13_903:3793)">
<path fill-rule="evenodd" clip-rule="evenodd" d="M142.043 14.5264L163.406 14.5264V-5.40168H142.043V14.5264Z" fill="#ED342B"/>
</g>
</svg>
