<svg width="22" height="23" viewBox="0 0 22 23" fill="none" xmlns="http://www.w3.org/2000/svg">
<g clip-path="url(#clip0_903:3776)">
<path d="M20.2611 5.39899L15.7665 0.984619C15.646 0.866287 15.4839 0.799988 15.3148 0.799988H3.95178C2.62579 0.799988 1.54688 1.87874 1.54688 3.2049V20.3951C1.54688 21.7211 2.62563 22.8 3.95178 22.8H18.0491C19.375 22.8 20.454 21.7212 20.454 20.3951V5.85889C20.454 5.68584 20.3845 5.52017 20.2611 5.39899ZM15.9594 2.98099L18.2334 5.21436H16.1643C16.0513 5.21436 15.9594 5.12238 15.9594 5.00941V2.98099ZM18.0491 21.5109H3.95178C3.33662 21.5109 2.83594 21.0104 2.83594 20.3951V3.2049C2.83594 2.58957 3.33646 2.08905 3.95178 2.08905H14.6705V5.00941C14.6705 5.83321 15.3407 6.50342 16.1645 6.50342H19.1649V20.3951C19.1649 21.0104 18.6644 21.5109 18.0491 21.5109Z" fill="#7F91A8"/>
<path d="M15.4746 11.0266H6.38867C6.03267 11.0266 5.74414 11.3151 5.74414 11.6711C5.74414 12.0271 6.03267 12.3156 6.38867 12.3156H15.4746C15.8306 12.3156 16.1191 12.0271 16.1191 11.6711C16.1191 11.3151 15.8306 11.0266 15.4746 11.0266Z" fill="#7F91A8"/>
<path d="M6.38867 14.8937H13.7971C14.1531 14.8937 14.4416 14.6052 14.4416 14.2492C14.4416 13.8932 14.1531 13.6047 13.7971 13.6047H6.38867C6.03267 13.6047 5.74414 13.8932 5.74414 14.2492C5.74414 14.6052 6.03267 14.8937 6.38867 14.8937Z" fill="#7F91A8"/>
<path d="M14.6909 16.1828H6.38867C6.03267 16.1828 5.74414 16.4713 5.74414 16.8273C5.74414 17.1833 6.03267 17.4719 6.38867 17.4719H14.6909C15.0467 17.4719 15.3354 17.1833 15.3354 16.8273C15.3354 16.4713 15.0467 16.1828 14.6909 16.1828Z" fill="#7F91A8"/>
</g>
<defs>
<clipPath id="clip0_903:3776">
<rect width="22" height="22" fill="white" transform="translate(0 0.799988)"/>
</clipPath>
</defs>
</svg>
