<svg width="20" height="20" viewBox="0 0 20 20" fill="none" xmlns="http://www.w3.org/2000/svg">
<mask id="path-1-inside-1_903:2862" fill="white">
<path fill-rule="evenodd" clip-rule="evenodd" d="M1.9 0C0.850659 0 0 0.850659 0 1.9V7.9C0 8.94934 0.850659 9.8 1.9 9.8H7.9C8.94934 9.8 9.8 8.94934 9.8 7.9V1.9C9.8 0.850659 8.94934 0 7.9 0H1.9ZM1.8 1.9C1.8 1.84477 1.84477 1.8 1.9 1.8H7.9C7.95523 1.8 8 1.84477 8 1.9V7.9C8 7.95523 7.95523 8 7.9 8H1.9C1.84477 8 1.8 7.95523 1.8 7.9V1.9ZM11.9 0C10.8507 0 10 0.850659 10 1.9V7.9C10 8.94934 10.8507 9.8 11.9 9.8H17.9C18.9493 9.8 19.8 8.94934 19.8 7.9V1.9C19.8 0.850659 18.9493 0 17.9 0H11.9ZM11.8 1.9C11.8 1.84477 11.8448 1.8 11.9 1.8H17.9C17.9552 1.8 18 1.84477 18 1.9V7.9C18 7.95523 17.9552 8 17.9 8H11.9C11.8448 8 11.8 7.95523 11.8 7.9V1.9ZM10 11.9C10 10.8507 10.8507 10 11.9 10H17.9C18.9493 10 19.8 10.8507 19.8 11.9V17.9C19.8 18.9493 18.9493 19.8 17.9 19.8H11.9C10.8507 19.8 10 18.9493 10 17.9V11.9ZM11.9 11.8C11.8448 11.8 11.8 11.8448 11.8 11.9V17.9C11.8 17.9552 11.8448 18 11.9 18H17.9C17.9552 18 18 17.9552 18 17.9V11.9C18 11.8448 17.9552 11.8 17.9 11.8H11.9ZM1.9 10C0.850659 10 0 10.8507 0 11.9V17.9C0 18.9493 0.850659 19.8 1.9 19.8H7.9C8.94934 19.8 9.8 18.9493 9.8 17.9V11.9C9.8 10.8507 8.94934 10 7.9 10H1.9ZM1.8 11.9C1.8 11.8448 1.84477 11.8 1.9 11.8H7.9C7.95523 11.8 8 11.8448 8 11.9V17.9C8 17.9552 7.95523 18 7.9 18H1.9C1.84477 18 1.8 17.9552 1.8 17.9V11.9Z"/>
</mask>
<path d="M1.8 1.9C1.8 1.84477 1.84477 1.8 1.9 1.8V-1.8C-0.143454 -1.8 -1.8 -0.143454 -1.8 1.9H1.8ZM1.8 7.9V1.9H-1.8V7.9H1.8ZM1.9 8C1.84477 8 1.8 7.95523 1.8 7.9H-1.8C-1.8 9.94345 -0.143453 11.6 1.9 11.6V8ZM7.9 8H1.9V11.6H7.9V8ZM8 7.9C8 7.95523 7.95523 8 7.9 8V11.6C9.94345 11.6 11.6 9.94345 11.6 7.9H8ZM8 1.9V7.9H11.6V1.9H8ZM7.9 1.8C7.95523 1.8 8 1.84477 8 1.9H11.6C11.6 -0.143453 9.94345 -1.8 7.9 -1.8V1.8ZM1.9 1.8H7.9V-1.8H1.9V1.8ZM1.9 0C0.850659 0 0 0.850659 0 1.9H3.6C3.6 2.83888 2.83888 3.6 1.9 3.6V0ZM7.9 0H1.9V3.6H7.9V0ZM9.8 1.9C9.8 0.850659 8.94934 0 7.9 0V3.6C6.96112 3.6 6.2 2.83888 6.2 1.9H9.8ZM9.8 7.9V1.9H6.2V7.9H9.8ZM7.9 9.8C8.94934 9.8 9.8 8.94934 9.8 7.9H6.2C6.2 6.96112 6.96112 6.2 7.9 6.2V9.8ZM1.9 9.8H7.9V6.2H1.9V9.8ZM0 7.9C0 8.94934 0.850659 9.8 1.9 9.8V6.2C2.83888 6.2 3.6 6.96112 3.6 7.9H0ZM0 1.9V7.9H3.6V1.9H0ZM11.8 1.9C11.8 1.84477 11.8448 1.8 11.9 1.8V-1.8C9.85655 -1.8 8.2 -0.143453 8.2 1.9H11.8ZM11.8 7.9V1.9H8.2V7.9H11.8ZM11.9 8C11.8448 8 11.8 7.95523 11.8 7.9H8.2C8.2 9.94345 9.85655 11.6 11.9 11.6V8ZM17.9 8H11.9V11.6H17.9V8ZM18 7.9C18 7.95523 17.9552 8 17.9 8V11.6C19.9435 11.6 21.6 9.94345 21.6 7.9H18ZM18 1.9V7.9H21.6V1.9H18ZM17.9 1.8C17.9552 1.8 18 1.84477 18 1.9H21.6C21.6 -0.143453 19.9435 -1.8 17.9 -1.8V1.8ZM11.9 1.8H17.9V-1.8H11.9V1.8ZM11.9 0C10.8507 0 10 0.850648 10 1.9H13.6C13.6 2.8389 12.8389 3.6 11.9 3.6V0ZM17.9 0H11.9V3.6H17.9V0ZM19.8 1.9C19.8 0.850637 18.9493 0 17.9 0V3.6C16.9611 3.6 16.2 2.83891 16.2 1.9H19.8ZM19.8 7.9V1.9H16.2V7.9H19.8ZM17.9 9.8C18.9493 9.8 19.8 8.94936 19.8 7.9H16.2C16.2 6.96109 16.9611 6.2 17.9 6.2V9.8ZM11.9 9.8H17.9V6.2H11.9V9.8ZM10 7.9C10 8.94935 10.8507 9.8 11.9 9.8V6.2C12.8389 6.2 13.6 6.9611 13.6 7.9H10ZM10 1.9V7.9H13.6V1.9H10ZM11.9 8.2C9.85655 8.2 8.2 9.85655 8.2 11.9H11.8C11.8 11.8448 11.8448 11.8 11.9 11.8V8.2ZM17.9 8.2H11.9V11.8H17.9V8.2ZM21.6 11.9C21.6 9.85655 19.9435 8.2 17.9 8.2V11.8C17.9552 11.8 18 11.8448 18 11.9H21.6ZM21.6 17.9V11.9H18V17.9H21.6ZM17.9 21.6C19.9435 21.6 21.6 19.9435 21.6 17.9H18C18 17.9552 17.9552 18 17.9 18V21.6ZM11.9 21.6H17.9V18H11.9V21.6ZM8.2 17.9C8.2 19.9435 9.85655 21.6 11.9 21.6V18C11.8448 18 11.8 17.9552 11.8 17.9H8.2ZM8.2 11.9V17.9H11.8V11.9H8.2ZM13.6 11.9C13.6 12.8389 12.8389 13.6 11.9 13.6V10C10.8507 10 10 10.8507 10 11.9H13.6ZM13.6 17.9V11.9H10V17.9H13.6ZM11.9 16.2C12.8389 16.2 13.6 16.9611 13.6 17.9H10C10 18.9493 10.8506 19.8 11.9 19.8V16.2ZM17.9 16.2H11.9V19.8H17.9V16.2ZM16.2 17.9C16.2 16.9611 16.9611 16.2 17.9 16.2V19.8C18.9493 19.8 19.8 18.9493 19.8 17.9H16.2ZM16.2 11.9V17.9H19.8V11.9H16.2ZM17.9 13.6C16.9611 13.6 16.2 12.8389 16.2 11.9H19.8C19.8 10.8506 18.9493 10 17.9 10V13.6ZM11.9 13.6H17.9V10H11.9V13.6ZM1.8 11.9C1.8 11.8448 1.84477 11.8 1.9 11.8V8.2C-0.143453 8.2 -1.8 9.85655 -1.8 11.9H1.8ZM1.8 17.9V11.9H-1.8V17.9H1.8ZM1.9 18C1.84477 18 1.8 17.9552 1.8 17.9H-1.8C-1.8 19.9435 -0.143453 21.6 1.9 21.6V18ZM7.9 18H1.9V21.6H7.9V18ZM8 17.9C8 17.9552 7.95523 18 7.9 18V21.6C9.94345 21.6 11.6 19.9435 11.6 17.9H8ZM8 11.9V17.9H11.6V11.9H8ZM7.9 11.8C7.95523 11.8 8 11.8448 8 11.9H11.6C11.6 9.85655 9.94345 8.2 7.9 8.2V11.8ZM1.9 11.8H7.9V8.2H1.9V11.8ZM1.9 10C0.850648 10 0 10.8507 0 11.9H3.6C3.6 12.8389 2.8389 13.6 1.9 13.6V10ZM7.9 10H1.9V13.6H7.9V10ZM9.8 11.9C9.8 10.8507 8.94935 10 7.9 10V13.6C6.9611 13.6 6.2 12.8389 6.2 11.9H9.8ZM9.8 17.9V11.9H6.2V17.9H9.8ZM7.9 19.8C8.94936 19.8 9.8 18.9493 9.8 17.9H6.2C6.2 16.9611 6.96109 16.2 7.9 16.2V19.8ZM1.9 19.8H7.9V16.2H1.9V19.8ZM0 17.9C0 18.9493 0.850637 19.8 1.9 19.8V16.2C2.83891 16.2 3.6 16.9611 3.6 17.9H0ZM0 11.9V17.9H3.6V11.9H0Z" fill="#7F91A8" mask="url(#path-1-inside-1_903:2862)"/>
</svg>
