<svg width="21" height="22" viewBox="0 0 21 22" fill="none" xmlns="http://www.w3.org/2000/svg">
<g clip-path="url(#clip0_903:3740)">
<path d="M14.3972 6.72278H9.18186C8.7222 6.72278 8.34961 7.09532 8.34961 7.55503C8.34961 8.01469 8.72215 8.38727 9.18186 8.38727H14.3972C14.8572 8.38727 15.2294 8.01473 15.2294 7.55503C15.2294 7.09532 14.8569 6.72278 14.3972 6.72278Z" fill="#7F91A8"/>
<path d="M16.3945 10.7451H9.18186C8.7222 10.7451 8.34961 11.1177 8.34961 11.5774C8.34961 12.037 8.72215 12.4096 9.18186 12.4096H16.3945C16.8542 12.4096 17.2268 12.0371 17.2268 11.5774C17.2268 11.1177 16.8542 10.7451 16.3945 10.7451Z" fill="#7F91A8"/>
<path d="M20.1678 1.50739H5.43724C4.97757 1.50739 4.60499 1.87993 4.60499 2.33963V10.1904H3.13474C1.40618 10.1904 0 11.5968 0 13.3251V17.9578C0 19.6864 1.40618 21.0926 3.13474 21.0926C3.27621 21.0926 3.41549 21.0832 3.55171 21.0649H17.2827C19.3322 21.0649 21 19.3973 21 17.3476V2.33963C21 1.87993 20.6275 1.50739 20.1678 1.50739ZM4.60503 17.9578C4.60503 18.6711 4.0943 19.2675 3.41939 19.4004H3.13478V19.4281C2.3239 19.4281 1.6645 18.7684 1.6645 17.9578V13.3251C1.6645 12.5145 2.32419 11.8548 3.13478 11.8548H4.60507V17.9578H4.60503ZM19.3355 17.3475C19.3355 18.4602 18.3957 19.4004 17.2827 19.4004H5.91745C6.14242 18.9684 6.26948 18.4777 6.26948 17.9578V3.17184H19.3355V17.3475Z" fill="#7F91A8"/>
<path d="M14.3972 14.5182H9.18186C8.7222 14.5182 8.34961 14.8908 8.34961 15.3505C8.34961 15.8102 8.72215 16.1827 9.18186 16.1827H14.3972C14.8572 16.1827 15.2294 15.8102 15.2294 15.3505C15.2294 14.8908 14.8569 14.5182 14.3972 14.5182Z" fill="#7F91A8"/>
</g>
<defs>
<clipPath id="clip0_903:3740">
<rect width="21" height="21" fill="white" transform="translate(0 0.799988)"/>
</clipPath>
</defs>
</svg>
