<svg width="22" height="23" viewBox="0 0 22 23" fill="none" xmlns="http://www.w3.org/2000/svg">
<g clip-path="url(#clip0_903:3785)">
<path d="M20.4031 8.9904L19.3302 8.80846C19.2347 8.54259 19.1268 8.28175 19.0075 8.02814L19.6392 7.14426C20.1889 6.37199 20.1006 5.32899 19.4314 4.66634L18.1422 3.37694C17.7778 3.01254 17.2948 2.8118 16.7822 2.8118C16.3785 2.8118 15.9924 2.93617 15.6685 3.16931L14.7812 3.80125C14.5068 3.67151 14.2284 3.55687 13.9481 3.45784L13.7706 2.40662C13.6145 1.47557 12.8159 0.799988 11.8716 0.799988H10.0502C9.10602 0.799988 8.3074 1.47557 8.15164 2.40477L7.96516 3.49712C7.70181 3.59329 7.44215 3.70256 7.18787 3.82458L6.31674 3.19717C5.99011 2.96202 5.60255 2.83781 5.19586 2.83781C4.67822 2.83781 4.19499 3.03889 3.83463 3.40413L2.54237 4.69218C1.87502 5.35954 1.78757 6.4017 2.33458 7.1701L2.97659 8.07211C2.85826 8.32674 2.75185 8.58875 2.65785 8.85612L1.60646 9.03354C0.675583 9.1898 0 9.98842 0 10.9326V12.754C0 13.6982 0.675583 14.4968 1.60478 14.6527L2.69713 14.839C2.7933 15.1025 2.90274 15.3624 3.0246 15.6165L2.39954 16.4859C1.84984 17.2582 1.93813 18.3014 2.60733 18.9639L3.89656 20.2533C4.26096 20.6176 4.74402 20.8184 5.25662 20.8184C5.66029 20.8184 6.04634 20.694 6.37012 20.461L7.27213 19.819C7.50912 19.9291 7.75485 20.03 8.00713 20.1208L8.18588 21.1935C8.34215 22.1244 9.14076 22.8 10.0849 22.8H11.9106C12.8547 22.8 13.6535 22.1244 13.8094 21.1947L13.9914 20.1217C14.2572 20.0262 14.5181 19.9182 14.7717 19.7989L15.6527 20.4286C15.9793 20.6638 16.3669 20.7882 16.7736 20.7882C17.286 20.7882 17.7691 20.5874 18.1335 20.223L19.4227 18.9336C20.0902 18.2663 20.1775 17.2241 19.6305 16.4557L18.9981 15.5676C19.1206 15.3082 19.2289 15.0475 19.322 14.7883L20.3934 14.6097C21.3242 14.4535 21.9998 13.6549 21.9998 12.7107V10.8929C22.0104 9.9478 21.3397 9.14818 20.4031 8.9904ZM20.7108 12.7107C20.7108 13.0228 20.4875 13.2868 20.1807 13.3383L18.7597 13.5751C18.4975 13.6188 18.2861 13.8037 18.2073 14.058C18.0811 14.4671 17.9077 14.8852 17.6924 15.3001C17.5705 15.5341 17.59 15.8129 17.7431 16.0274L18.5805 17.2033C18.7611 17.4571 18.732 17.8015 18.5113 18.0222L17.2221 19.3115C17.0994 19.4342 16.9443 19.4991 16.7736 19.4991C16.639 19.4991 16.5119 19.4588 16.4042 19.3813L15.2333 18.5444C15.0179 18.3898 14.7379 18.3703 14.5028 18.4934C14.109 18.6995 13.6906 18.8729 13.259 19.0083C13.0073 19.0872 12.8235 19.298 12.7797 19.5575L12.5383 20.98C12.4868 21.2877 12.2228 21.5109 11.9106 21.5109H10.0849C9.77271 21.5109 9.50885 21.2877 9.45732 20.9809L9.22049 19.5599C9.17719 19.2994 8.9939 19.0882 8.74213 19.0087C8.3168 18.8744 7.91179 18.7079 7.53799 18.5137C7.43611 18.4608 7.32584 18.4348 7.21606 18.4348C7.07407 18.4348 6.93274 18.4784 6.81172 18.5645L5.61984 19.4128C5.51242 19.4902 5.39023 19.5293 5.25662 19.5293C5.08592 19.5293 4.93083 19.4645 4.80814 19.3417L3.51656 18.0503C3.29617 17.8321 3.26814 17.4886 3.44791 17.236L4.28026 16.0782C4.43686 15.8609 4.45599 15.5789 4.32977 15.3417C4.11812 14.9448 3.94272 14.5285 3.80827 14.1044C3.72871 13.8543 3.51874 13.6715 3.26025 13.6273L1.81979 13.3818C1.5123 13.3301 1.28906 13.0661 1.28906 12.754V10.9326C1.28906 10.6205 1.5123 10.3565 1.8203 10.3048L3.22383 10.068C3.48618 10.0238 3.69749 9.83836 3.77554 9.58324C3.90797 9.14986 4.07834 8.73074 4.28194 8.33798C4.40312 8.10451 4.38365 7.82639 4.23108 7.61171L3.3848 6.42268C3.20403 6.1689 3.23306 5.82448 3.45311 5.60443L4.7467 4.3152L4.7514 4.31033C4.86772 4.192 5.0255 4.12688 5.19586 4.12688C5.33047 4.12688 5.4577 4.16716 5.56345 4.24336L6.72629 5.08041C6.94398 5.23718 7.2263 5.25598 7.46263 5.12976C7.85959 4.91811 8.27585 4.74271 8.69949 4.60843C8.94958 4.52904 9.13237 4.3194 9.17685 4.06024L9.42258 2.61978C9.47411 2.31229 9.73813 2.08905 10.0503 2.08905H11.8718C12.1838 2.08905 12.4478 2.31229 12.4995 2.62029L12.7364 4.02432C12.7807 4.28683 12.9665 4.49799 13.2218 4.57587C13.657 4.70813 14.0911 4.88672 14.5122 5.10693C14.7462 5.22913 15.025 5.20999 15.2405 5.05675L16.4191 4.21735C16.5264 4.13997 16.6485 4.10086 16.7823 4.10086C16.9529 4.10086 17.1079 4.16565 17.2308 4.28851L18.5222 5.57993C18.7426 5.79813 18.7708 6.14154 18.5899 6.39549L17.7521 7.56757C17.5984 7.78308 17.5793 8.06271 17.702 8.29703C17.9082 8.6908 18.0815 9.10924 18.2171 9.54094C18.2961 9.79271 18.5068 9.97633 18.7663 10.0201L20.1876 10.2613L20.1888 10.2615C20.4954 10.313 20.7151 10.5732 20.7108 10.8802V12.7107Z" fill="#7F91A8"/>
<path d="M11.0001 7.52261C8.64148 7.52261 6.72266 9.44144 6.72266 11.8C6.72266 14.1586 8.64148 16.0774 11.0001 16.0774C13.3586 16.0774 15.2775 14.1586 15.2775 11.8C15.2775 9.44144 13.3586 7.52261 11.0001 7.52261ZM11.0001 14.7884C9.35231 14.7884 8.01172 13.4478 8.01172 11.8C8.01172 10.1523 9.35231 8.81168 11.0001 8.81168C12.6478 8.81168 13.9884 10.1523 13.9884 11.8C13.9884 13.4478 12.6478 14.7884 11.0001 14.7884Z" fill="#7F91A8"/>
</g>
<defs>
<clipPath id="clip0_903:3785">
<rect width="22" height="22" fill="white" transform="translate(0 0.799988)"/>
</clipPath>
</defs>
</svg>
