<svg width="23" height="22" viewBox="0 0 23 22" fill="none" xmlns="http://www.w3.org/2000/svg">
<mask id="path-1-inside-1_903:3730" fill="white">
<path fill-rule="evenodd" clip-rule="evenodd" d="M4.92296 7.11743C4.92296 4.77517 6.7427 2.93481 9.05873 2.93481C11.3748 2.93481 13.1945 4.77517 13.1945 7.11743C13.1945 9.4597 11.3748 11.3 9.05873 11.3C6.7427 11.3 4.92296 9.4597 4.92296 7.11743ZM16.502 17.1556V18.8286C16.502 19.3306 16.1712 19.6652 15.6749 19.6652C15.1786 19.6652 14.8477 19.3306 14.8477 18.8286V17.1556C14.8477 15.7335 13.7724 14.646 12.3663 14.646H5.74904C4.34289 14.646 3.26759 15.7335 3.26759 17.1556V18.8286C3.26759 19.3306 2.93673 19.6652 2.44043 19.6652C1.94414 19.6652 1.61328 19.3306 1.61328 18.8286V17.1556C1.61328 14.8133 3.43302 12.973 5.74904 12.973H12.3663C14.6823 12.973 16.502 14.8133 16.502 17.1556ZM9.05693 9.62688C7.65077 9.62688 6.57547 8.5394 6.57547 7.11731C6.57547 5.69522 7.65077 4.60774 9.05693 4.60774C10.4631 4.60774 11.5384 5.69522 11.5384 7.11731C11.5384 8.5394 10.4631 9.62688 9.05693 9.62688ZM18.3217 13.1401C17.9081 13.0565 17.4118 13.3074 17.3291 13.7257C17.2464 14.144 17.4945 14.6459 17.9081 14.7295C18.9834 14.9805 19.7279 15.9843 19.7279 17.1554V18.8285C19.7279 19.3304 20.0587 19.665 20.555 19.665C21.0513 19.665 21.3822 19.3304 21.3822 18.8285V17.1554C21.4649 15.2314 20.2241 13.5584 18.3217 13.1401ZM14.0202 3.68695C14.1857 3.18504 14.5993 2.93408 15.0128 3.10138C17.2461 3.6033 18.5696 5.94556 17.9906 8.28783C17.6597 9.79357 16.5017 10.8811 15.0128 11.2993H14.8474C14.4338 11.2993 14.103 11.0484 14.0202 10.6301C13.8548 10.2118 14.1857 9.70992 14.5993 9.62627C15.5091 9.37531 16.1708 8.70609 16.419 7.78591C16.7499 6.36382 15.9227 5.02539 14.5993 4.69078C14.1857 4.60713 13.9375 4.10521 14.0202 3.68695Z"/>
</mask>
<path d="M18.3217 13.1401L18.5364 12.1635L18.5282 12.1617L18.5199 12.16L18.3217 13.1401ZM17.9081 14.7295L18.1354 13.7557L18.1209 13.7523L18.1064 13.7494L17.9081 14.7295ZM21.3822 17.1554L20.3831 17.1125L20.3822 17.134V17.1554H21.3822ZM15.0128 3.10138L14.6378 4.0284L14.7137 4.0591L14.7936 4.07705L15.0128 3.10138ZM14.0202 3.68695L13.0705 3.37391L13.0512 3.43247L13.0392 3.49295L14.0202 3.68695ZM17.9906 8.28783L17.0198 8.04785L17.0167 8.0605L17.0139 8.07322L17.9906 8.28783ZM15.0128 11.2993V12.2993H15.1506L15.2833 12.262L15.0128 11.2993ZM14.0202 10.6301L15.0012 10.4361L14.9836 10.3469L14.9502 10.2623L14.0202 10.6301ZM14.5993 9.62627L14.7975 10.6064L14.8316 10.5995L14.8651 10.5903L14.5993 9.62627ZM16.419 7.78591L17.3845 8.04629L17.389 8.02948L17.393 8.01252L16.419 7.78591ZM14.5993 4.69078L14.8444 3.72128L14.8211 3.71539L14.7975 3.71063L14.5993 4.69078ZM9.05873 1.93481C6.17982 1.93481 3.92296 4.23353 3.92296 7.11743H5.92296C5.92296 5.3168 7.30557 3.93481 9.05873 3.93481V1.93481ZM14.1945 7.11743C14.1945 4.23353 11.9376 1.93481 9.05873 1.93481V3.93481C10.8119 3.93481 12.1945 5.3168 12.1945 7.11743H14.1945ZM9.05873 12.3C11.9376 12.3 14.1945 10.0013 14.1945 7.11743H12.1945C12.1945 8.91806 10.8119 10.3 9.05873 10.3V12.3ZM3.92296 7.11743C3.92296 10.0013 6.17982 12.3 9.05873 12.3V10.3C7.30557 10.3 5.92296 8.91806 5.92296 7.11743H3.92296ZM17.502 18.8286V17.1556H15.502V18.8286H17.502ZM15.6749 20.6652C16.1537 20.6652 16.6288 20.4991 16.9856 20.1382C17.3415 19.7784 17.502 19.3035 17.502 18.8286H15.502C15.502 18.8442 15.4996 18.8375 15.5079 18.8156C15.5166 18.7929 15.5339 18.7619 15.5635 18.732C15.5932 18.702 15.6252 18.6831 15.651 18.6731C15.6759 18.6634 15.6863 18.6652 15.6749 18.6652V20.6652ZM13.8477 18.8286C13.8477 19.3035 14.0083 19.7784 14.3641 20.1382C14.7209 20.4991 15.1961 20.6652 15.6749 20.6652V18.6652C15.6634 18.6652 15.6739 18.6634 15.6988 18.6731C15.7246 18.6831 15.7566 18.702 15.7863 18.732C15.8159 18.7619 15.8332 18.7929 15.8419 18.8156C15.8502 18.8375 15.8477 18.8442 15.8477 18.8286H13.8477ZM13.8477 17.1556V18.8286H15.8477V17.1556H13.8477ZM12.3663 15.646C13.2096 15.646 13.8477 16.2751 13.8477 17.1556H15.8477C15.8477 15.1919 14.3353 13.646 12.3663 13.646V15.646ZM5.74904 15.646H12.3663V13.646H5.74904V15.646ZM4.26759 17.1556C4.26759 16.2751 4.90576 15.646 5.74904 15.646V13.646C3.78001 13.646 2.26759 15.1919 2.26759 17.1556H4.26759ZM4.26759 18.8286V17.1556H2.26759V18.8286H4.26759ZM2.44043 20.6652C2.91924 20.6652 3.39439 20.4991 3.7512 20.1382C4.10701 19.7784 4.26759 19.3035 4.26759 18.8286H2.26759C2.26759 18.8442 2.26513 18.8375 2.27345 18.8156C2.28211 18.7929 2.29945 18.7619 2.32904 18.732C2.35871 18.702 2.39071 18.6831 2.41654 18.6731C2.44146 18.6634 2.45188 18.6652 2.44043 18.6652V20.6652ZM0.613281 18.8286C0.613281 19.3035 0.773854 19.7784 1.12967 20.1382C1.48648 20.4991 1.96163 20.6652 2.44043 20.6652V18.6652C2.42899 18.6652 2.43941 18.6634 2.46433 18.6731C2.49015 18.6831 2.52216 18.702 2.55183 18.732C2.58141 18.7619 2.59876 18.7929 2.60742 18.8156C2.61574 18.8375 2.61328 18.8442 2.61328 18.8286H0.613281ZM0.613281 17.1556V18.8286H2.61328V17.1556H0.613281ZM5.74904 11.973C2.87014 11.973 0.613281 14.2717 0.613281 17.1556H2.61328C2.61328 15.355 3.99589 13.973 5.74904 13.973V11.973ZM12.3663 11.973H5.74904V13.973H12.3663V11.973ZM17.502 17.1556C17.502 14.2717 15.2452 11.973 12.3663 11.973V13.973C14.1194 13.973 15.502 15.355 15.502 17.1556H17.502ZM5.57547 7.11731C5.57547 9.08104 7.08789 10.6269 9.05693 10.6269V8.62688C8.21364 8.62688 7.57547 7.99777 7.57547 7.11731H5.57547ZM9.05693 3.60774C7.08789 3.60774 5.57547 5.15359 5.57547 7.11731H7.57547C7.57547 6.23686 8.21364 5.60774 9.05693 5.60774V3.60774ZM12.5384 7.11731C12.5384 5.15359 11.026 3.60774 9.05693 3.60774V5.60774C9.90021 5.60774 10.5384 6.23686 10.5384 7.11731H12.5384ZM9.05693 10.6269C11.026 10.6269 12.5384 9.08104 12.5384 7.11731H10.5384C10.5384 7.99777 9.90021 8.62688 9.05693 8.62688V10.6269ZM18.3101 13.9197C18.2823 14.0605 18.1981 14.1126 18.1912 14.1165C18.1838 14.1207 18.1789 14.1221 18.1739 14.1229C18.169 14.1238 18.1521 14.1261 18.1234 14.1203L18.5199 12.16C18.058 12.0665 17.5878 12.1614 17.2115 12.3729C16.8324 12.5859 16.4587 12.9726 16.3481 13.5317L18.3101 13.9197ZM18.1064 13.7494C18.2563 13.7797 18.3081 13.87 18.309 13.8716C18.312 13.8772 18.3123 13.8793 18.3126 13.8808C18.3128 13.8821 18.315 13.895 18.3101 13.9197L16.3481 13.5317C16.2575 13.99 16.3491 14.4578 16.556 14.8346C16.7637 15.2126 17.1463 15.5957 17.7099 15.7097L18.1064 13.7494ZM20.7279 17.1554C20.7279 15.5694 19.7101 14.1232 18.1354 13.7557L17.6808 15.7034C18.2568 15.8378 18.7279 16.3992 18.7279 17.1554H20.7279ZM20.7279 18.8285V17.1554H18.7279V18.8285H20.7279ZM20.555 18.665C20.5436 18.665 20.554 18.6632 20.5789 18.6729C20.6047 18.683 20.6367 18.7019 20.6664 18.7319C20.696 18.7618 20.7133 18.7927 20.722 18.8155C20.7303 18.8374 20.7279 18.844 20.7279 18.8285H18.7279C18.7279 19.3033 18.8884 19.7782 19.2442 20.1381C19.6011 20.4989 20.0762 20.665 20.555 20.665V18.665ZM20.3822 18.8285C20.3822 18.844 20.3797 18.8374 20.388 18.8155C20.3967 18.7927 20.414 18.7618 20.4436 18.7319C20.4733 18.7019 20.5053 18.683 20.5311 18.6729C20.556 18.6632 20.5665 18.665 20.555 18.665V20.665C21.0338 20.665 21.509 20.4989 21.8658 20.1381C22.2216 19.7782 22.3822 19.3033 22.3822 18.8285H20.3822ZM20.3822 17.1554V18.8285H22.3822V17.1554H20.3822ZM18.107 14.1168C19.521 14.4277 20.4456 15.6593 20.3831 17.1125L22.3812 17.1984C22.4842 14.8036 20.9273 12.6891 18.5364 12.1635L18.107 14.1168ZM15.3878 2.17436C14.8878 1.97209 14.3534 2.02134 13.9122 2.28379C13.4899 2.53502 13.2131 2.9414 13.0705 3.37391L14.97 3.99999C14.9929 3.93059 15.0055 3.96053 14.9348 4.00263C14.8981 4.02443 14.8466 4.04377 14.7851 4.04862C14.7229 4.05353 14.6713 4.04197 14.6378 4.0284L15.3878 2.17436ZM18.9614 8.5278C19.6588 5.70648 18.0757 2.76479 15.2321 2.12572L14.7936 4.07705C16.4166 4.44181 17.4804 6.18465 17.0198 8.04785L18.9614 8.5278ZM15.2833 12.262C17.0765 11.7583 18.5464 10.4179 18.9673 8.50244L17.0139 8.07322C16.7731 9.16923 15.9269 10.0038 14.7424 10.3366L15.2833 12.262ZM14.8474 12.2993H15.0128V10.2993H14.8474V12.2993ZM13.0392 10.8241C13.22 11.7381 13.9848 12.2993 14.8474 12.2993V10.2993C14.8451 10.2993 14.8836 10.3003 14.9319 10.3386C14.9545 10.3566 14.9726 10.3779 14.9851 10.3989C14.9975 10.4197 15.0009 10.4341 15.0012 10.4361L13.0392 10.8241ZM14.401 8.64611C13.8744 8.75263 13.4694 9.10056 13.2367 9.48552C13.0006 9.87634 12.8676 10.4347 13.0903 10.9979L14.9502 10.2623C15.0075 10.4072 14.9572 10.5055 14.9485 10.5199C14.9412 10.532 14.9309 10.5446 14.9135 10.5578C14.896 10.5709 14.8585 10.5941 14.7975 10.6064L14.401 8.64611ZM15.4535 7.52554C15.2964 8.10798 14.8978 8.50658 14.3334 8.66226L14.8651 10.5903C16.1204 10.244 17.0453 9.3042 17.3845 8.04629L15.4535 7.52554ZM14.3541 5.66027C15.133 5.85719 15.6562 6.65134 15.445 7.55931L17.393 8.01252C17.8435 6.07631 16.7124 4.19358 14.8444 3.72128L14.3541 5.66027ZM13.0392 3.49295C12.9486 3.95123 13.0402 4.41906 13.2472 4.79581C13.4549 5.17387 13.8375 5.55694 14.401 5.67093L14.7975 3.71063C14.9475 3.74096 14.9992 3.83125 15.0001 3.83287C15.0032 3.83846 15.0035 3.84058 15.0037 3.84202C15.0039 3.84338 15.0061 3.85625 15.0012 3.88095L13.0392 3.49295Z" fill="#7F91A8" mask="url(#path-1-inside-1_903:3730)"/>
</svg>
