<svg width="23" height="24" viewBox="0 0 23 24" fill="none" xmlns="http://www.w3.org/2000/svg">
<g clip-path="url(#clip0_903:3757)">
<path d="M11.29 9.63613C11.0097 9.35581 10.554 9.35438 10.2723 9.63469L7.90615 12.0022L6.97752 11.0722C6.69721 10.7919 6.24152 10.7919 5.96121 11.0722C5.6809 11.3525 5.6809 11.8082 5.96121 12.0885L7.39871 13.526C7.53815 13.6669 7.72215 13.7373 7.90615 13.7373C8.09015 13.7373 8.27415 13.6669 8.41502 13.5274L11.29 10.6524C11.5703 10.3721 11.5703 9.91644 11.29 9.63613Z" fill="#7F91A8"/>
<path d="M11.29 15.3861C11.0097 15.1058 10.554 15.1044 10.2723 15.3847L7.90615 17.7522L6.97752 16.8236C6.69721 16.5433 6.24152 16.5433 5.96121 16.8236C5.6809 17.1039 5.6809 17.5596 5.96121 17.8399L7.39871 19.2774C7.53815 19.4169 7.72215 19.4873 7.90615 19.4873C8.09015 19.4873 8.27415 19.4169 8.41502 19.2774L11.29 16.4024C11.5703 16.1221 11.5703 15.6664 11.29 15.3861Z" fill="#7F91A8"/>
<path d="M16.5312 10.8625H13.6562C13.2595 10.8625 12.9375 11.1845 12.9375 11.5812C12.9375 11.978 13.2595 12.3 13.6562 12.3H16.5312C16.928 12.3 17.25 11.978 17.25 11.5812C17.25 11.1845 16.928 10.8625 16.5312 10.8625Z" fill="#7F91A8"/>
<path d="M16.5312 16.6125H13.6562C13.2595 16.6125 12.9375 16.9345 12.9375 17.3312C12.9375 17.728 13.2595 18.05 13.6562 18.05H16.5312C16.928 18.05 17.25 17.728 17.25 17.3312C17.25 16.9345 16.928 16.6125 16.5312 16.6125Z" fill="#7F91A8"/>
<path d="M18.6875 3.67499H15.8125V2.95624C15.8125 2.55949 15.4905 2.23749 15.0938 2.23749H13.5341C13.2365 1.40086 12.4373 0.799988 11.5 0.799988C10.5627 0.799988 9.7635 1.40086 9.46594 2.23749H7.90625C7.5095 2.23749 7.1875 2.55949 7.1875 2.95624V3.67499H4.3125C3.52044 3.67499 2.875 4.32043 2.875 5.11249V22.3625C2.875 23.1546 3.52044 23.8 4.3125 23.8H18.6875C19.4796 23.8 20.125 23.1546 20.125 22.3625V5.11249C20.125 4.32043 19.4796 3.67499 18.6875 3.67499ZM8.625 3.67499H10.0625C10.4592 3.67499 10.7812 3.35299 10.7812 2.95624C10.7812 2.55949 11.1032 2.23749 11.5 2.23749C11.8968 2.23749 12.2188 2.55949 12.2188 2.95624C12.2188 3.35299 12.5407 3.67499 12.9375 3.67499H14.375V5.11249H8.625V3.67499ZM18.6875 22.3625H4.3125V5.11249H7.1875V5.83124C7.1875 6.22799 7.5095 6.54999 7.90625 6.54999H15.0938C15.4905 6.54999 15.8125 6.22799 15.8125 5.83124V5.11249H18.6875V22.3625Z" fill="#7F91A8"/>
</g>
<defs>
<clipPath id="clip0_903:3757">
<rect width="23" height="23" fill="white" transform="translate(0 0.799988)"/>
</clipPath>
</defs>
</svg>
