<svg width="20" height="19" viewBox="0 0 20 19" fill="none" xmlns="http://www.w3.org/2000/svg">
<path d="M7.21199 8.70833L9.61584 6.33333L7.21199 8.70833ZM9.61584 6.33333L12.0197 8.70833L9.61584 6.33333ZM9.61584 6.33333V12.6667V6.33333ZM9.61584 2.375C10.5629 2.375 11.5006 2.55929 12.3756 2.91736C13.2505 3.27542 14.0455 3.80025 14.7152 4.46186C15.3848 5.12348 15.916 5.90894 16.2784 6.77338C16.6408 7.63783 16.8274 8.56433 16.8274 9.5C16.8274 10.4357 16.6408 11.3622 16.2784 12.2266C15.916 13.0911 15.3848 13.8765 14.7152 14.5381C14.0455 15.1998 13.2505 15.7246 12.3756 16.0826C11.5006 16.4407 10.5629 16.625 9.61584 16.625C7.70322 16.625 5.86893 15.8743 4.51651 14.5381C3.16408 13.2019 2.4043 11.3897 2.4043 9.5C2.4043 7.61033 3.16408 5.79806 4.51651 4.46186C5.86893 3.12567 7.70322 2.375 9.61584 2.375V2.375Z" stroke="#11B01A" stroke-linecap="round" stroke-linejoin="round"/>
</svg>
